<svg width="768" height="500" viewBox="0 0 768 500" fill="none" xmlns="http://www.w3.org/2000/svg">
<g clip-path="url(#clip0_755_196)">
<g opacity="0.8" filter="url(#filter0_f_755_196)">
<mask id="mask0_755_196" style="mask-type:alpha" maskUnits="userSpaceOnUse" x="-89" y="206" width="1030" height="314">
<path d="M-88.3898 501.032C-99.3226 460.181 122.128 365.276 406.234 289.057C690.34 212.839 929.517 184.167 940.449 225.019C951.382 265.87 729.931 360.774 445.825 436.993C161.719 513.212 -77.4571 541.883 -88.3898 501.032Z" fill="#C4C4C4"/>
</mask>
<g mask="url(#mask0_755_196)">
<g style="mix-blend-mode:multiply" opacity="0.4" filter="url(#filter1_f_755_196)">
<path d="M72.5405 457.968C58.9164 407.06 200.359 324.882 388.461 274.419C576.563 223.956 740.095 224.316 753.719 275.224C767.343 326.132 625.901 408.31 437.798 458.774C249.696 509.237 86.1646 508.876 72.5405 457.968Z" fill="url(#paint0_linear_755_196)"/>
</g>
</g>
</g>
<g opacity="0.8" filter="url(#filter2_f_755_196)">
<mask id="mask1_755_196" style="mask-type:alpha" maskUnits="userSpaceOnUse" x="-113" y="19" width="1001" height="308">
<path d="M-111.808 306.955C-122.741 266.104 92.0123 172.996 367.857 98.9936C643.701 24.991 876.18 -1.88343 887.113 38.9679C898.045 79.8192 683.292 172.927 407.448 246.929C131.603 320.932 -100.876 347.806 -111.808 306.955Z" fill="#C4C4C4"/>
</mask>
<g mask="url(#mask1_755_196)">
<g style="mix-blend-mode:multiply" opacity="0.4" filter="url(#filter3_f_755_196)">
<path d="M34.1637 267.906C20.5395 216.998 161.982 134.82 350.084 84.3563C538.187 33.8929 701.718 34.2533 715.342 85.1614C728.966 136.069 587.524 218.247 399.422 268.711C211.319 319.174 47.7878 318.814 34.1637 267.906Z" fill="url(#paint1_linear_755_196)"/>
</g>
</g>
</g>
<g opacity="0.8" filter="url(#filter4_f_755_196)">
<mask id="mask2_755_196" style="mask-type:alpha" maskUnits="userSpaceOnUse" x="-239" y="70" width="1300" height="380">
<path d="M-238.205 434.367C-249.137 393.516 32.6588 282.422 391.205 186.233C749.75 90.0434 1049.27 45.183 1060.2 86.0343C1071.14 126.886 789.341 237.979 430.795 334.169C72.2497 430.358 -227.272 475.218 -238.205 434.367Z" fill="#C4C4C4"/>
</mask>
<g mask="url(#mask2_755_196)">
<g style="mix-blend-mode:multiply" opacity="0.4" filter="url(#filter5_f_755_196)">
<path d="M57.5107 355.145C43.8866 304.237 185.329 222.059 373.431 171.595C561.534 121.132 725.065 121.492 738.689 172.4C752.313 223.308 610.871 305.486 422.769 355.95C234.666 406.413 71.1348 406.053 57.5107 355.145Z" fill="url(#paint2_linear_755_196)"/>
</g>
</g>
</g>
</g>
<defs>
<filter id="filter0_f_755_196" x="33.0377" y="198.21" width="760.184" height="336.772" filterUnits="userSpaceOnUse" color-interpolation-filters="sRGB">
<feFlood flood-opacity="0" result="BackgroundImageFix"/>
<feBlend mode="normal" in="SourceGraphic" in2="BackgroundImageFix" result="shape"/>
<feGaussianBlur stdDeviation="19.2978" result="effect1_foregroundBlur_755_196"/>
</filter>
<filter id="filter1_f_755_196" x="-19.4631" y="145.71" width="865.186" height="441.773" filterUnits="userSpaceOnUse" color-interpolation-filters="sRGB">
<feFlood flood-opacity="0" result="BackgroundImageFix"/>
<feBlend mode="normal" in="SourceGraphic" in2="BackgroundImageFix" result="shape"/>
<feGaussianBlur stdDeviation="45.5482" result="effect1_foregroundBlur_755_196"/>
</filter>
<filter id="filter2_f_755_196" x="-16.7435" y="-3.25684" width="782.993" height="359.581" filterUnits="userSpaceOnUse" color-interpolation-filters="sRGB">
<feFlood flood-opacity="0" result="BackgroundImageFix"/>
<feBlend mode="normal" in="SourceGraphic" in2="BackgroundImageFix" result="shape"/>
<feGaussianBlur stdDeviation="25" result="effect1_foregroundBlur_755_196"/>
</filter>
<filter id="filter3_f_755_196" x="-81.1011" y="-67.6144" width="911.708" height="488.296" filterUnits="userSpaceOnUse" color-interpolation-filters="sRGB">
<feFlood flood-opacity="0" result="BackgroundImageFix"/>
<feBlend mode="normal" in="SourceGraphic" in2="BackgroundImageFix" result="shape"/>
<feGaussianBlur stdDeviation="57.1788" result="effect1_foregroundBlur_755_196"/>
</filter>
<filter id="filter4_f_755_196" x="18.0079" y="95.3866" width="760.184" height="336.772" filterUnits="userSpaceOnUse" color-interpolation-filters="sRGB">
<feFlood flood-opacity="0" result="BackgroundImageFix"/>
<feBlend mode="normal" in="SourceGraphic" in2="BackgroundImageFix" result="shape"/>
<feGaussianBlur stdDeviation="19.2978" result="effect1_foregroundBlur_755_196"/>
</filter>
<filter id="filter5_f_755_196" x="-34.4929" y="42.8858" width="865.186" height="441.773" filterUnits="userSpaceOnUse" color-interpolation-filters="sRGB">
<feFlood flood-opacity="0" result="BackgroundImageFix"/>
<feBlend mode="normal" in="SourceGraphic" in2="BackgroundImageFix" result="shape"/>
<feGaussianBlur stdDeviation="45.5482" result="effect1_foregroundBlur_755_196"/>
</filter>
<linearGradient id="paint0_linear_755_196" x1="388.461" y1="274.419" x2="-371.836" y2="477.891" gradientUnits="userSpaceOnUse">
<stop stop-color="#ED7A3C"/>
<stop offset="0.0001" stop-color="#ED7A3C" stop-opacity="0.34"/>
<stop offset="1" stop-color="#0A0909" stop-opacity="0"/>
</linearGradient>
<linearGradient id="paint1_linear_755_196" x1="350.084" y1="84.3563" x2="-410.213" y2="287.829" gradientUnits="userSpaceOnUse">
<stop stop-color="#ED7A3C"/>
<stop offset="0.286458" stop-color="#232323"/>
<stop offset="1" stop-color="#ED7A3C"/>
</linearGradient>
<linearGradient id="paint2_linear_755_196" x1="373.431" y1="171.595" x2="-386.866" y2="375.068" gradientUnits="userSpaceOnUse">
<stop stop-color="#ED7A3C"/>
<stop offset="0.286458" stop-color="#232323"/>
<stop offset="1" stop-color="#ED7A3C"/>
</linearGradient>
<clipPath id="clip0_755_196">
<rect width="768" height="500" fill="white"/>
</clipPath>
</defs>
</svg>
